<svg width="31" height="30" viewBox="0 0 31 30" fill="none" xmlns="http://www.w3.org/2000/svg">
<rect width="30" height="30" rx="15" transform="matrix(-1 0 0 1 30.8186 0)" fill="#D3B9A0"/>
<path d="M15.8186 19.5626L14.5061 18.2501L16.8186 15.9376H11.1311V14.0626H16.8186L14.5061 11.7501L15.8186 10.4376L20.3811 15.0001L15.8186 19.5626ZM15.8186 27.5001C17.5894 27.5001 19.2353 27.1824 20.7561 26.5469C22.2769 25.9115 23.5999 25.0313 24.7249 23.9063C25.8499 22.7813 26.7301 21.4584 27.3655 19.9376C28.0009 18.4167 28.3186 16.7709 28.3186 15.0001C28.3186 13.2501 28.0009 11.6146 27.3655 10.0938C26.7301 8.57298 25.8499 7.25006 24.7249 6.12506C23.5999 5.00006 22.2769 4.11464 20.7561 3.46881C19.2353 2.82298 17.5894 2.50006 15.8186 2.50006C14.0686 2.50006 12.4332 2.82298 10.9124 3.46881C9.39152 4.11464 8.0686 5.00006 6.9436 6.12506C5.8186 7.25006 4.93319 8.57298 4.28735 10.0938C3.64152 11.6146 3.3186 13.2501 3.3186 15.0001C3.3186 16.7709 3.64152 18.4167 4.28735 19.9376C4.93319 21.4584 5.8186 22.7813 6.9436 23.9063C8.0686 25.0313 9.39152 25.9115 10.9124 26.5469C12.4332 27.1824 14.0686 27.5001 15.8186 27.5001ZM15.8186 25.6251C12.7978 25.6251 10.2717 24.6094 8.24048 22.5782C6.20923 20.5469 5.1936 18.0209 5.1936 15.0001C5.1936 11.9792 6.20923 9.45319 8.24048 7.42194C10.2717 5.39069 12.7978 4.37506 15.8186 4.37506C18.8394 4.37506 21.3655 5.39069 23.3967 7.42194C25.428 9.45319 26.4436 11.9792 26.4436 15.0001C26.4436 18.0209 25.428 20.5469 23.3967 22.5782C21.3655 24.6094 18.8394 25.6251 15.8186 25.6251Z" fill="white"/>
</svg>
